<?xml version="1.0" encoding="UTF-8"?>
<svg data-bbox="31.45 44.441 616.471 643.439" viewBox="0 0 677.05 735.07" xmlns:xlink="http://www.w3.org/1999/xlink" xmlns="http://www.w3.org/2000/svg" data-type="ugc">
    <g>
        <defs>
            <linearGradient gradientUnits="userSpaceOnUse" y2="759.1" x2="364.61" y1="-34.44" x1="167.06" id="c31da1b4-d30f-42aa-ac45-10e889626702">
                <stop stop-color="#459dd7" offset="0"/>
                <stop stop-color="#342560" offset="1"/>
            </linearGradient>
            <linearGradient xlink:href="#c31da1b4-d30f-42aa-ac45-10e889626702" y2="781.41" x2="274.99" y1="-12.13" x1="77.44" id="486bedb0-117c-4b74-8c79-7d1b8f16fba0"/>
            <linearGradient xlink:href="#c31da1b4-d30f-42aa-ac45-10e889626702" y2="699.58" x2="603.7" y1="-93.96" x1="406.15" id="31d07f0e-9476-4c27-b80f-89d4a5c6c16f"/>
            <linearGradient xlink:href="#c31da1b4-d30f-42aa-ac45-10e889626702" y2="556.03" x2="317.55" y1="38.06" x1="356.74" id="f486d266-71bd-4bff-b979-9396ce3f90e2"/>
        </defs>
        <path d="M432.18 591.7c-8.53 1.05-42.25 5.32-60.83 6.23-43.11 2.2-84.73-.34-123.96-6.99-1.05-.19-2.06-.34-3.07-.53 0 .19-.05.53-.1 1.05-1.15 11.16-8.67 96.42-8.67 96.42l196.77-95.56 1.87-.91s-.72.1-2.01.29" fill="url(#c31da1b4-d30f-42aa-ac45-10e889626702)"/>
        <path d="M248.24 577.75c2.15.59 4.4.85 6.91 1.33-4.48 3.92-7.21 8.49-8.17 13.56C105.66 533.86 15.19 406.03 33.89 272.68 48.22 170.53 123.23 89.13 225.9 48.69c-9.98 5.6-19.53 12.1-28.64 19.58-1.82 1.5-4.14 2.45-5.81 4.08-7.72 7.49-15.82 14.66-22.75 22.82-8.92 10.49-17.55 21.35-24.97 32.91-6.02 9.37-10.69 19.77-14.85 30.16-4.69 11.75-9.05 23.78-11.96 36.07-8.28 34.98-7.43 70.01 1.36 104.89 6.92 27.51 18.76 52.74 35.75 75.36 11.36 15.13 24.33 29.06 35.5 44.3 8.62 11.73 16.92 24.07 22.93 37.24 10.12 22.16 14.37 46 14.89 70.47.08 4.07 1.65 8.49 3.71 12.07 2.23 3.87 5.08 6.53 8.36 8.31-1.8 2.63-2.79 5.94-2.86 9.77-.02 1.75-.11 3.5-.13 5.25-.15 7.96 4.05 13.64 11.81 15.78" fill="url(#486bedb0-117c-4b74-8c79-7d1b8f16fba0)"/>
        <path d="M431.13 577.75c-2.15.59-4.4.85-6.91 1.33 4.48 3.92 7.21 8.49 8.17 13.56 141.32-58.77 231.79-186.6 213.09-319.95C631.15 170.54 556.14 89.14 453.47 48.7c9.98 5.6 19.53 12.1 28.64 19.58 1.82 1.5 4.14 2.45 5.81 4.08 7.72 7.49 15.82 14.66 22.75 22.82 8.92 10.49 17.55 21.35 24.97 32.91 6.02 9.37 10.69 19.77 14.85 30.16 4.69 11.75 9.05 23.78 11.96 36.07 8.28 34.98 7.43 70.01-1.36 104.89-6.92 27.51-18.76 52.74-35.75 75.36-11.36 15.13-24.33 29.06-35.5 44.3-8.62 11.73-16.92 24.07-22.93 37.24-10.12 22.16-14.37 46-14.89 70.47-.08 4.07-1.65 8.49-3.71 12.07-2.23 3.87-5.08 6.53-8.36 8.31 1.8 2.63 2.79 5.94 2.86 9.77.02 1.75.11 3.5.13 5.25.15 7.96-4.05 13.64-11.81 15.78Z" fill="url(#31d07f0e-9476-4c27-b80f-89d4a5c6c16f)"/>
        <path d="M544.49 248.08c0 5.07-.19 10.1-.55 15.08q-.225 3.045-.54 6.06c-.01.17-.03.34-.05.51-.29 2.81-.65 5.61-1.07 8.38a201.8 201.8 0 0 1-21.9 66.16c-1.01 1.9-2.05 3.77-3.13 5.63a204.6 204.6 0 0 1-31.14 40.91c-1.55 1.57-3.12 3.11-4.71 4.63-3.07 2.94-6.24 5.78-9.49 8.52a201 201 0 0 1-6.45 5.2 203.5 203.5 0 0 1-34.96 21.82 204 204 0 0 1-26.25 10.68 203 203 0 0 1-24.54 6.36q-3.69.705-7.44 1.29c-5.92.92-11.93 1.58-18.01 1.98-2.1.13-4.21.24-6.33.3-2.35.09-4.71.13-7.08.13-7.26 0-14.42-.38-21.48-1.12-2.57-.27-5.12-.59-7.66-.96a201 201 0 0 1-35.42-8.37q-3.57-1.185-7.08-2.52a200 200 0 0 1-26.48-12.18 204 204 0 0 1-25.8-16.88 186 186 0 0 1-6.6-5.28 208 208 0 0 1-19.83-18.97 203.8 203.8 0 0 1-26.39-36.14c-1.02-1.76-2-3.53-2.95-5.32a202 202 0 0 1-21.03-61.36c-.59-3.46-1.1-6.95-1.51-10.47q-.27-2.25-.48-4.53c-.21-2.14-.38-4.29-.52-6.44-.27-4.33-.41-8.7-.41-13.1 0-18.58 2.49-36.58 7.15-53.68.56-2.08 1.16-4.15 1.79-6.2q1.77-5.745 3.87-11.34c1.27-3.44 2.65-6.84 4.11-10.18a203.4 203.4 0 0 1 23.32-40.17c1.21-1.62 2.44-3.22 3.7-4.8 7.59-9.58 16.02-18.45 25.18-26.53 2.55-2.24 5.16-4.43 7.83-6.54 7.71-6.15 15.89-11.74 24.46-16.72a203.4 203.4 0 0 1 38.68-17.37c1.96-.64 3.95-1.26 5.94-1.85 10.51-3.09 21.37-5.36 32.51-6.72 3.51-.44 7.04-.78 10.6-1.03a208 208 0 0 1 25.69-.21c2.76.15 5.51.36 8.24.62 9.77.92 19.33 2.53 28.65 4.79a202.6 202.6 0 0 1 40.67 14.59c3.22 1.57 6.4 3.21 9.53 4.94 7.34 4.05 14.4 8.54 21.15 13.44 1.97 1.42 3.91 2.88 5.82 4.37 12.53 9.8 23.89 21.02 33.82 33.43 1.27 1.58 2.52 3.19 3.74 4.81A203 203 0 0 1 531 175.05a201 201 0 0 1 4.96 14.52c.63 2.1 1.22 4.21 1.78 6.34 4.41 16.65 6.75 34.14 6.75 52.17" fill="url(#f486d266-71bd-4bff-b979-9396ce3f90e2)"/>
        <path d="m543.94 263.16-83.02-11.68 76.82-55.57c-.56-2.13-1.15-4.24-1.78-6.34l-79.71 57.61 3.44-90.16 74.05 25.6c-.86-2.55-1.78-5.07-2.74-7.57l-67.38-23.44 40.04-25.88c-1.22-1.62-2.47-3.23-3.74-4.81l-39.5 25.53 5.68-58.96c-1.91-1.49-3.85-2.95-5.82-4.37l-6.12 62.84-70.39-68.79 55.36-7.49a209 209 0 0 0-9.53-4.94l-46.33 6.53 12.17-19.43c-2.16-.6-4.33-1.16-6.51-1.69L377.01 69.3l-16.73-23.94c-2.73-.26-5.48-.47-8.24-.62l19.19 27.15c.01.56-.42.57-.84.62-4.17.49-9.25.25-13.54.47-20.35 1.02-40.78 2.48-61.15 3.21-1.35.05-2.72-.05-4.07-.01l34.72-31.23c-3.56.25-7.09.59-10.6 1.03l-30.51 27.25-2-20.53c-1.99.59-3.98 1.21-5.94 1.85l2.05 21.14-32.93-8.08c-2.63 1.38-5.24 2.81-7.8 4.31l37.04 9.42-70.51 50.86 9.01-43.56c-2.67 2.11-5.28 4.3-7.83 6.54l-8.06 38.87-17.12-12.34c-1.26 1.58-2.49 3.18-3.7 4.8l17.62 12.82-40.94 27.35c-1.46 3.34-2.84 6.74-4.11 10.18l48.13-32.12 19.28 84.02-71.28-40.56c-.63 2.05-1.23 4.12-1.79 6.2l70.12 40.01-76.86 26.77c.14 2.15.31 4.3.52 6.44l79.54-28.05-20.27 90.9-58.79-58.32c.41 3.52.92 7.01 1.51 10.47l53.22 52.77-32.19 8.59c.95 1.79 1.93 3.56 2.95 5.32l31.7-8.51-5.31 44.65c1.82 1.99 3.69 3.95 5.59 5.87l5.62-47.57 53.56 55.77-44.94 4.9q3.24 2.715 6.6 5.28l38.83-4.28-13.03 21.16c1.92 1.06 3.85 2.08 5.81 3.08l12.38-20.06 8.29 29.16q3.51 1.335 7.08 2.52l-10.21-35.61 73.71 12.53-28.08 31.45c2.54.37 5.09.69 7.66.96l24.35-27.25 4.21 28.24c2.12-.06 4.23-.17 6.33-.3l-3.91-25.49 21.92 23.51q3.75-.585 7.44-1.29l-28.38-30.32 56.27-15.24-3.35 39.2c2.19-.72 4.36-1.47 6.52-2.26l2.85-32.02 16.88 23.6c1.89-.93 3.76-1.89 5.62-2.87l-18.2-25.65 47.54 6.7c2.19-1.69 4.33-3.42 6.45-5.2l-55.47-7.64 40.78-56.26 24.18 55.38c1.59-1.52 3.16-3.06 4.71-4.63l-22.98-52.96 54.12 12.05c1.08-1.86 2.12-3.73 3.13-5.63l-55.29-12.08 77.19-54.08c.42-2.77.78-5.57 1.07-8.38l-82.93 58.04-4.42-70.76 87.4 12.21q.315-3.015.54-6.06m-226.27-32.93-89.68 1.35 46.81-70.14zm-37.09-71.74 85.99 1.72-43.37 67.08zm37.59 77.64-40.66 83.53-50-81.81zm4.79 4.67 28.13 68.54-67.57 13.03zm5.28-3.93 115.47 18.18-86.72 52.08zm.24-6.27 44.11-67.93 72.6 86.72zm50.13-70.63 74.93-4.18-3.92 89.43zm1.23-77.89 69.77 68.05-73.95 3.94zm-5.9-3.93-4.43 72.72-78.86-68.42zm-88.69 7.86 78.37 68.06-85.26-1.48zm-6.15.25-6.88 65.6-64.37-13.88zm-74.69 57.25 65.36 13.75-46.44 69.78zm18.92 99.75 49.38 80.82-69.28 9.1zm36.6 152.08-54.04-56.39 68.05-8.97zm5.76 3.94 13.91-65.36 58.71 77.88zm77.66 8.59-59.83-79.36 68.55-13.27zm6.02 4.17 8.36-91.15 48.39 75.92zm61.67-19.16-48.65-76.65 89.92 19.16zm-47.17-82.55 86.23-51.35 4.18 70.76z" fill="#ffffff"/>
    </g>
</svg>
